<svg width="1200" height="900" viewBox="0 0 1200 900" fill="none" xmlns="http://www.w3.org/2000/svg">
  <rect width="1200" height="900" fill="#FAFAF9"/>
  <rect x="60" y="60" width="1080" height="72" rx="22" fill="#FFFFFF" stroke="#E5E7EB"/>
  <rect x="90" y="84" width="160" height="24" rx="12" fill="#0F766E"/>
  <rect x="300" y="78" width="430" height="36" rx="18" fill="#F3F4F6"/>
  <rect x="920" y="78" width="70" height="36" rx="18" fill="#F3F4F6"/>
  <rect x="1008" y="78" width="70" height="36" rx="18" fill="#F3F4F6"/>
  <rect x="1096" y="78" width="14" height="36" rx="7" fill="#F97316"/>
  <rect x="60" y="164" width="1080" height="280" rx="36" fill="#0F766E"/>
  <rect x="96" y="208" width="380" height="32" rx="16" fill="#5EEAD4"/>
  <rect x="96" y="260" width="530" height="72" rx="20" fill="#FAFAF9"/>
  <rect x="96" y="352" width="220" height="44" rx="22" fill="#F97316"/>
  <rect x="708" y="212" width="340" height="184" rx="28" fill="#FAFAF9"/>
  <rect x="60" y="492" width="320" height="288" rx="28" fill="#FFFFFF" stroke="#E5E7EB"/>
  <rect x="402" y="492" width="320" height="288" rx="28" fill="#FFFFFF" stroke="#E5E7EB"/>
  <rect x="744" y="492" width="396" height="288" rx="28" fill="#FFFFFF" stroke="#E5E7EB"/>
  <rect x="90" y="528" width="260" height="150" rx="24" fill="#F3F4F6"/>
  <rect x="432" y="528" width="260" height="150" rx="24" fill="#F3F4F6"/>
  <rect x="774" y="528" width="336" height="30" rx="15" fill="#111827"/>
  <rect x="774" y="574" width="220" height="20" rx="10" fill="#6B7280"/>
  <rect x="774" y="628" width="164" height="42" rx="21" fill="#F97316"/>
</svg>
